<svg width="512" height="512" viewBox="0 0 512 512" fill="none" xmlns="http://www.w3.org/2000/svg">
<g clip-path="url(#clip0)">
<path d="M187.321 444.027C217.591 457.719 230.859 512 230.859 512L452.378 511.391C448.226 502.77 443.508 494.433 438.254 486.435C434.075 477.883 430.571 469.016 427.776 459.917C422.588 442.363 418.995 424.375 417.042 406.175C413.758 378.21 417.974 349.875 429.259 324.078C439.208 301.391 456.483 283.418 469.654 262.647C482.711 242.366 489.743 218.795 489.931 194.675C490.426 170.245 487.43 145.871 481.033 122.288C472.663 93.7196 455.202 68.6614 431.298 50.9175C387.531 16.5958 342.881 -2.59537 286.349 0.282425C258.056 2.25211 229.945 6.28825 202.24 12.3586C172.067 18.4319 140.12 29.7136 118.466 52.577C103.695 68.3616 92.2824 86.9816 84.9214 107.308C81.4711 117.419 78.6642 127.739 76.5175 138.205C72.9034 149.617 68.5419 160.778 63.4615 171.617C61.9668 174.91 61.3146 178.523 61.5636 182.131C63.2585 194.348 81.5845 199.6 81.7346 212.197C81.5382 214.98 80.6819 217.677 79.2364 220.063C68.493 242.758 55.3092 264.215 39.9183 284.054C36.2814 288.512 28.9015 297.295 29.8196 303.598C30.4728 308.074 35.84 311.79 39.1503 314.253C46.2124 319.497 60.5925 323.081 62.3845 332.544C63.3121 337.363 62.7295 342.351 60.7161 346.827C55.8345 357.129 50.4231 362.62 54.2631 365.85C58.1031 369.081 68.3873 376.841 68.3873 376.841C68.3873 376.841 58.6151 389.323 64.0265 393.154C70.7354 397.921 79.2805 400.119 81.558 409.044C82.236 416.116 81.5284 423.252 79.4747 430.053C78.7852 436.709 79.6557 443.434 82.0171 449.695C85.2307 462.191 97.725 469.931 110.345 467.244C136.405 460.903 162.101 453.153 187.321 444.027Z" fill="#35495E"/>
<path d="M372.277 374.731C361.382 374.729 351.57 368.139 347.445 358.056C345.044 352.238 336.455 343.932 320.441 331.917C294.524 312.496 287.929 277.76 302.786 238.989L308.083 225.298L455.706 252.469L426.805 281.423H426.664C413.617 294.691 401.655 310.078 401.655 326.621C401.801 336.94 400.241 347.212 397.038 357.023C393.503 367.655 383.525 374.803 372.321 374.731H372.277Z" fill="#2C3E50"/>
<path d="M382.234 290.057C371.668 290.081 361.17 288.366 351.161 284.981C344.054 282.575 337.226 279.411 330.796 275.544C315.272 265.654 301.016 253.903 288.344 240.552C281.886 234.005 273.75 229.362 264.828 227.134C260.169 226.048 255.42 225.389 250.642 225.165C248.876 225.068 246.899 225.024 244.913 225.024C225.268 225.792 205.696 227.856 186.324 231.203L174.31 232.969C169.045 233.713 163.736 234.097 158.42 234.116C156.751 234.116 155.127 234.116 153.565 233.993C145.758 233.811 138.035 232.337 130.71 229.632C109.349 221.48 94.5154 201.851 92.5043 179.076L92.3189 177.823C91.3818 171.123 91.1923 164.34 91.7539 157.599C91.9705 152.531 92.6143 147.49 93.6783 142.53C93.9078 141.524 97.3594 126.852 100.052 117.954C100.67 115.968 101.085 114.644 101.5 113.496C103.627 107.855 105.816 102.762 108.067 98.1627C114.123 85.8943 121.961 74.5901 131.328 64.6179C140.961 54.9385 152.412 47.2584 165.023 42.0193C171.291 39.2684 177.724 36.9098 184.285 34.9572C191.214 32.8827 198.409 31.0819 205.753 29.6165C213.919 27.9305 222.473 26.3062 231.124 24.779C236.5 23.7815 242.097 22.8723 247.684 22.0513C254.19 21.0538 260.696 20.2328 267.29 19.5001C273.664 18.8292 279.826 18.2731 285.996 17.9906C286.376 17.9906 286.879 17.92 287.417 17.8935C290.834 17.7434 294.259 17.6552 297.578 17.6552C300.226 17.6552 302.795 17.7523 305.302 17.8405C311.861 18.0641 318.399 18.6891 324.882 19.712C344.078 22.7162 362.629 28.9387 379.754 38.1175C384.406 40.5009 388.926 43.0786 393.393 45.9299C399.666 49.7081 406.56 54.4162 414.076 60.054C416.177 61.5989 418.242 63.1878 420.396 64.8827C424.406 67.9268 428.213 71.2294 431.793 74.7696C447.161 88.9103 458.315 107.028 464.022 127.117C467.557 139.846 469.92 152.87 471.084 166.029C471.711 172.853 472.055 179.076 472.143 185.141C472.276 187.939 472.276 191.029 472.276 194.207C472.247 197.879 472.003 201.545 471.543 205.188C470.908 212.331 469.469 219.378 467.253 226.198C464.334 235.7 460.147 244.765 454.806 253.149C445.091 267.939 430.922 279.255 414.349 285.458C403.888 288.415 393.079 289.962 382.208 290.057H382.234Z" fill="#2C3E50"/>
<path d="M319.294 245.319C313.468 260.502 303.581 297.225 331.034 317.793C351.585 333.206 360.166 342.643 363.767 351.338C365.045 354.81 368.352 357.118 372.052 357.118C375.752 357.118 379.059 354.81 380.337 351.338C382.92 343.359 384.158 335.006 384 326.621C384 301.197 402.361 280.276 419.222 263.945C419.31 263.945 419.399 263.857 419.487 263.768L319.294 245.319Z" fill="#DF4D60"/>
<path d="M454.532 185.379C454.444 179.377 454.091 173.462 453.561 167.724C452.477 155.604 450.29 143.608 447.029 131.884C442.145 114.697 432.542 99.223 419.31 87.2165C416.226 84.1877 412.954 81.3572 409.512 78.742C407.481 77.1531 405.539 75.6524 403.509 74.1517C396.888 69.2082 390.356 64.7062 383.912 60.822C379.763 58.1737 375.702 55.8786 371.553 53.76C356.156 45.49 339.473 39.8791 322.207 37.1641C316.391 36.2431 310.525 35.6829 304.64 35.4869C302.345 35.3986 299.961 35.3103 297.578 35.3103C294.488 35.3103 291.31 35.3986 288.132 35.5751C287.691 35.5751 287.25 35.6634 286.808 35.6634C280.982 35.9282 275.156 36.4579 269.241 37.0758C262.886 37.782 256.618 38.5765 250.262 39.5475C244.877 40.342 239.492 41.2248 234.196 42.1958C225.721 43.6965 217.335 45.2855 209.214 46.9627C202.152 48.3751 195.531 50.0524 189.352 51.9062C183.491 53.6421 177.743 55.7352 172.138 58.1738C161.644 62.47 152.103 68.8003 144.066 76.8C135.922 85.4553 129.109 95.2729 123.851 105.931C121.732 110.257 119.79 114.847 118.025 119.525C117.672 120.497 117.319 121.644 116.877 123.057C114.317 131.531 110.874 146.185 110.874 146.185C109.987 150.399 109.455 154.681 109.286 158.985C108.791 164.815 108.999 170.683 109.903 176.463V176.552C111.06 192.914 121.544 207.143 136.828 213.098C142.46 215.16 148.398 216.264 154.394 216.364C160.206 216.615 166.028 216.32 171.785 215.481C198.108 210.545 224.807 207.887 251.586 207.537C257.475 207.827 263.326 208.655 269.065 210.008C281.04 212.978 291.971 219.176 300.668 227.928C312.385 240.286 325.544 251.193 339.862 260.414C360.824 273.134 386.295 276.068 409.6 268.447C421.944 263.432 432.494 254.82 439.879 243.73C444.441 236.567 448.005 228.816 450.472 220.69C452.324 214.99 453.509 209.095 454.003 203.123C454.387 200.166 454.594 197.189 454.621 194.207C454.621 191.205 454.621 188.292 454.532 185.379Z" fill="#FB7B76"/>
<path d="M154.483 150.069C154.439 164.677 142.608 176.508 128 176.552H109.903V176.463C108.999 170.683 108.791 164.815 109.286 158.985C109.634 158.912 109.989 158.882 110.345 158.897H128C132.875 158.897 136.828 154.944 136.828 150.069C136.828 145.194 140.78 141.241 145.655 141.241C150.531 141.241 154.483 145.194 154.483 150.069Z" fill="#FF5364"/>
<path d="M154.483 203.034V215.481C154.497 215.778 154.467 216.076 154.394 216.364C148.398 216.264 142.46 215.16 136.828 213.098V203.034C136.828 198.159 140.78 194.207 145.655 194.207C150.531 194.207 154.483 198.159 154.483 203.034Z" fill="#FF5364"/>
<path d="M207.448 185.379H198.621C183.995 185.379 172.138 173.523 172.138 158.897V150.069C172.138 135.443 183.995 123.586 198.621 123.586H207.448C212.324 123.586 216.276 127.538 216.276 132.414C216.276 137.289 212.324 141.241 207.448 141.241H198.621C193.745 141.241 189.793 145.194 189.793 150.069V158.897C189.793 163.772 193.745 167.724 198.621 167.724H207.448C212.324 167.724 216.276 171.676 216.276 176.552C216.276 181.427 212.324 185.379 207.448 185.379Z" fill="#FF5364"/>
<path d="M163.31 114.758C163.31 119.634 159.358 123.586 154.483 123.586H119.879C118.855 123.59 117.838 123.41 116.877 123.056C117.319 121.644 117.672 120.496 118.025 119.525C119.79 114.847 121.732 110.256 123.851 105.931H154.483C159.358 105.931 163.31 109.883 163.31 114.758Z" fill="#FF5364"/>
<path d="M207.448 97.1034C207.448 101.979 203.496 105.931 198.621 105.931C184.013 105.887 172.182 94.0561 172.138 79.4482V58.1737C177.743 55.7352 183.491 53.6421 189.352 51.9061C189.634 52.7913 189.783 53.7136 189.793 54.6427V79.4482C189.793 84.3235 193.745 88.2758 198.621 88.2758C203.496 88.2758 207.448 92.228 207.448 97.1034Z" fill="#FF5364"/>
<path d="M242.759 167.724H233.931C229.056 167.724 225.103 163.772 225.103 158.896C225.103 154.021 229.056 150.069 233.931 150.069H242.759C247.634 150.069 251.586 146.117 251.586 141.241V123.586C251.586 118.711 255.538 114.759 260.414 114.759C265.289 114.759 269.241 118.711 269.241 123.586V141.241C269.241 155.867 257.385 167.724 242.759 167.724Z" fill="#FF5364"/>
<path d="M286.896 123.586C282.021 123.586 278.069 119.634 278.069 114.759V105.931C278.069 101.056 274.117 97.1034 269.241 97.1034H251.586C246.711 97.1034 242.759 101.056 242.759 105.931V114.759C242.759 119.634 238.806 123.586 233.931 123.586C229.056 123.586 225.103 119.634 225.103 114.759V105.931C225.103 91.305 236.96 79.4482 251.586 79.4482H269.241C283.867 79.4482 295.724 91.305 295.724 105.931V114.759C295.724 119.634 291.772 123.586 286.896 123.586Z" fill="#FF5364"/>
<path d="M251.586 44.1378V52.9654C251.586 57.8408 247.634 61.793 242.759 61.793C237.883 61.793 233.931 57.8408 233.931 52.9654V44.1378C233.926 43.4812 234.015 42.8272 234.196 42.1958C239.492 41.2247 244.877 40.342 250.262 39.5475C251.148 40.9127 251.609 42.5104 251.586 44.1378Z" fill="#FF5364"/>
<path d="M286.897 36.193V52.9654C286.897 57.8407 282.944 61.793 278.069 61.793C273.194 61.793 269.241 57.8407 269.241 52.9654V37.0757C275.156 36.4578 280.982 35.9282 286.808 35.6633C286.88 35.8301 286.91 36.0119 286.897 36.193Z" fill="#FF5364"/>
<path d="M339.862 79.4482C339.862 84.3235 335.91 88.2758 331.034 88.2758H313.379C308.504 88.2758 304.552 84.3235 304.552 79.4482V36.1047C304.537 35.8949 304.567 35.6843 304.64 35.4868C310.525 35.6829 316.391 36.2431 322.207 37.1641V70.6206H331.034C335.91 70.6206 339.862 74.5729 339.862 79.4482Z" fill="#FF5364"/>
<path d="M269.241 194.207V208.331C269.231 208.894 269.172 209.455 269.065 210.008C263.326 208.655 257.475 207.827 251.586 207.537V194.207C251.586 189.332 255.538 185.379 260.414 185.379C265.289 185.379 269.241 189.332 269.241 194.207Z" fill="#FF5364"/>
<path d="M322.207 194.207H313.379C298.753 194.207 286.896 182.35 286.896 167.724V158.896C286.896 154.021 290.849 150.069 295.724 150.069C300.599 150.069 304.552 154.021 304.552 158.896V167.724C304.552 172.599 308.504 176.552 313.379 176.552H322.207C327.082 176.552 331.034 180.504 331.034 185.379C331.034 190.255 327.082 194.207 322.207 194.207Z" fill="#FF5364"/>
<path d="M357.517 158.896H348.69C334.064 158.896 322.207 147.04 322.207 132.414C322.207 117.788 334.064 105.931 348.69 105.931H357.517C362.393 105.931 366.345 109.883 366.345 114.758C366.345 119.634 362.393 123.586 357.517 123.586H348.69C343.814 123.586 339.862 127.538 339.862 132.414C339.862 137.289 343.814 141.241 348.69 141.241H357.517C362.393 141.241 366.345 145.193 366.345 150.069C366.345 154.944 362.393 158.896 357.517 158.896Z" fill="#FF5364"/>
<path d="M384 61.793V88.2757C384 93.1511 380.048 97.1033 375.172 97.1033C370.297 97.1033 366.345 93.1511 366.345 88.2757V61.793C366.352 58.3246 368.39 55.1819 371.553 53.7599C375.702 55.8785 379.763 58.1737 383.912 60.822C383.989 61.1395 384.019 61.4667 384 61.793Z" fill="#FF5364"/>
<path d="M419.31 87.2164V105.931C419.267 120.539 407.436 132.37 392.828 132.414C387.952 132.414 384 128.461 384 123.586C384 118.711 387.952 114.759 392.828 114.759C397.703 114.759 401.655 110.806 401.655 105.931V79.5364C401.661 77.586 402.313 75.6925 403.509 74.1516C405.539 75.6523 407.481 77.153 409.512 78.742C412.954 81.3571 416.226 84.1876 419.31 87.2164Z" fill="#FF5364"/>
<path d="M375.172 203.034H366.345C361.469 203.034 357.517 199.082 357.517 194.207C357.517 189.331 361.469 185.379 366.345 185.379H375.172C380.048 185.379 384 181.427 384 176.552V158.896C384 154.021 387.952 150.069 392.828 150.069C397.703 150.069 401.655 154.021 401.655 158.896V176.552C401.655 191.178 389.798 203.034 375.172 203.034Z" fill="#FF5364"/>
<path d="M401.655 229.517C401.655 234.393 397.703 238.345 392.828 238.345H366.345C361.469 238.345 357.517 242.297 357.517 247.172V264.828C357.514 266.011 357.273 267.181 356.811 268.27C350.896 266.266 345.214 263.632 339.862 260.414V247.172C339.906 232.564 351.737 220.733 366.345 220.69H392.828C395.169 220.69 397.414 221.62 399.07 223.275C400.725 224.931 401.655 227.176 401.655 229.517Z" fill="#FF5364"/>
<path d="M454.532 185.379H428.138C423.263 185.379 419.31 181.427 419.31 176.552C419.31 171.676 423.263 167.724 428.138 167.724H453.561C454.091 173.462 454.444 179.377 454.532 185.379Z" fill="#FF5364"/>
<path d="M454.003 203.123C453.509 209.095 452.324 214.99 450.472 220.69H428.138C423.263 220.69 419.31 216.737 419.31 211.862C419.31 206.987 423.263 203.034 428.138 203.034H452.767C453.181 203.017 453.595 203.046 454.003 203.123Z" fill="#FF5364"/>
</g>
<defs>
<clipPath id="clip0">
<rect width="512" height="512" fill="white"/>
</clipPath>
</defs>
</svg>
